<svg width="84" height="86" viewBox="0 0 84 86" fill="none" xmlns="http://www.w3.org/2000/svg">
<g opacity="0.34">
<path d="M30.3151 -2.39785L42.734 2.29447L43.475 15.2089L34.6391 21.8131L22.7232 17.2512L21.4793 4.20633L30.3151 -2.39785Z" fill="#192B39" fill-opacity="0.3"/>
<path d="M44.3635 16.3979L56.7824 21.0902L57.5233 34.0046L48.6874 40.6088L36.7715 36.0469L35.5276 23.002L44.3635 16.3979Z" fill="#192B39" fill-opacity="0.3"/>
<path d="M67.3606 14.3562L79.7794 19.0486L80.5204 31.963L71.6845 38.5672L59.7686 34.0053L58.5247 20.9604L67.3606 14.3562Z" fill="#192B39" fill-opacity="0.3"/>
<path d="M81.4089 33.1516L93.8278 37.844L94.5687 50.7584L85.7329 57.3626L73.8169 52.8007L72.5731 39.7558L81.4089 33.1516Z" fill="#192B39" fill-opacity="0.3"/>
<path d="M58.4118 35.1933L70.8307 39.8857L71.5716 52.8001L62.7358 59.4043L50.8198 54.8424L49.576 41.7975L58.4118 35.1933Z" fill="#192B39" fill-opacity="0.1"/>
<path d="M52.9441 -4.93203L65.3629 -0.239714L66.1039 12.6747L57.268 19.2789L45.3521 14.717L44.1082 1.67215L52.9441 -4.93203Z" fill="#192B39" fill-opacity="0.2"/>
<path d="M90.299 11.3599L102.718 16.0522L103.459 28.9666L94.623 35.5708L82.707 31.0089L81.4632 17.9641L90.299 11.3599Z" fill="#192B39" fill-opacity="0.1"/>
<path d="M76.2507 -7.43557L88.6696 -2.74325L89.4105 10.1712L80.5746 16.7753L68.6587 12.2135L67.4148 -0.831386L76.2507 -7.43557Z" fill="#192B39" fill-opacity="0.1"/>
<path d="M62.2024 -26.2312L74.6212 -21.5388L75.3622 -8.62444L66.5263 -2.02025L54.6104 -6.58213L53.3665 -19.627L62.2024 -26.2312Z" fill="#192B39" fill-opacity="0.1"/>
<path d="M35.3015 37.6119L47.7203 42.3042L48.4613 55.2186L39.6254 61.8228L27.7095 57.2609L26.4656 44.216L35.3015 37.6119Z" fill="#192B39" fill-opacity="0.2"/>
<path d="M21.2233 18.7768L33.6422 23.4691L34.3832 36.3836L25.5473 42.9877L13.6314 38.4259L12.3875 25.381L21.2233 18.7768Z" fill="#192B39" fill-opacity="0.15"/>
</g>
</svg>
