<svg xmlns="http://www.w3.org/2000/svg" viewBox="0 0 614.23 435.69"><defs><style>.cls-1{fill:#dcedfd;}.cls-2{fill:#f0f3fa;}.cls-3{fill:#c7e1f8;}.cls-4{fill:#385aa3;}.cls-5{fill:#304f91;}.cls-6{fill:#fff;}.cls-7{fill:#4972c7;}.cls-8{fill:#547cd1;}.cls-9{fill:#fec164;}.cls-10{fill:#f3aa81;}.cls-11{fill:#226b9e;}.cls-12{fill:#1a5680;}.cls-13{fill:#214a6a;}.cls-14{fill:#dde1eb;}.cls-15{fill:#e6996f;}.cls-16{fill:#cc835b;}.cls-17{fill:#464559;}.cls-18{fill:#3c3b4d;}.cls-19{fill:#313042;}.cls-20{fill:#e6f5ff;}</style></defs><title>Asset 1</title><g id="Layer_2" data-name="Layer 2"><g id="OBJECTS"><path class="cls-1" d="M133.88,245.38s0,0,0-.06.05,0,.06-.06c.15-.39,15.39-39.51-.59-82.51a.52.52,0,0,0-.52-.33.5.5,0,0,0-.46.4c-.1.42-9.09,42,.1,80.42a68.77,68.77,0,0,0-7.09-8.7c-1.77-1.92-3.57-3.84-5.38-5.74v-.07c-2.08-9.67.76-31.12,2.83-46.77.51-3.81,1-7.41,1.34-10.44,1.82-15.56-2-24.67-2.11-25.05a.51.51,0,0,0-.4-.31.53.53,0,0,0-.48.19c-.31.39-7.7,9.79-9.76,33.26-1.73,19.7,4.74,41,6.91,47.46Q107.91,216.24,96.9,206s0,0,0,0c.16-.39,15.4-39.5-.58-82.5a.52.52,0,0,0-1,.07c-.09.43-9.22,42.63.33,81.34Q89.16,198.79,82.46,193l-2.9-2.49c-1.61-9.84,2-30.95,4.7-46.4.66-3.79,1.27-7.36,1.75-10.38,2.43-15.48-1-24.73-1.12-25.11a.54.54,0,0,0-.4-.33.51.51,0,0,0-.48.17c-.33.38-8.08,9.48-11.06,32.85-2.53,19.84,3.26,41.66,5.1,47.91l-2.28-2c-4.36-3.72-8.74-7.47-13-11.34.44-3.72,4.46-43.55-18.91-80.19a.5.5,0,0,0-.58-.22.49.49,0,0,0-.37.5c0,.43.86,42.6,17.66,77.9A155.06,155.06,0,0,1,42.91,155C41.82,152.35,25,111.77.8,96.19a.54.54,0,0,0-.63,0,.54.54,0,0,0-.12.62c1,2,23.84,48.2,42.13,58.94a153.36,153.36,0,0,0,16.35,17.6c-5.71-3.08-16.92-8.48-29.16-10.79C12,159.33.77,156.17.66,156.14a.52.52,0,0,0-.6.75c.07.12,7.17,12.7,21.31,16.54,10.54,2.86,28.21,3.22,36.41,3.22,2.22,0,3.73,0,4.24,0,4.3,3.89,8.7,7.66,13.07,11.4l2.92,2.5c-3,.62-13.16,2.07-27.34-2.86-17.3-6-39.54.63-39.76.7a.51.51,0,0,0-.37.55.52.52,0,0,0,.48.46c7,.5,13.94,3.09,20.61,5.6,7.42,2.78,15.08,5.66,23,5.66.5,0,1,0,1.51,0,13.86-.66,21.44-7.49,23-9.1l2.65,2.27q6.52,5.67,12.9,11.59c-5-.73-19.51-2.4-33.8.36-17.37,3.36-29,4.56-29.07,4.57a.52.52,0,0,0-.45.36.52.52,0,0,0,.17.55c.1.09,9.55,7.72,22.34,7.72a31,31,0,0,0,3.56-.2c13.46-1.52,35.7-10.66,38.78-11.95q11.37,10.62,22.13,21.86c-3,.74-13.08,2.56-27.41-1.79-17.52-5.33-39.48,2.18-39.7,2.25a.51.51,0,0,0-.34.57.52.52,0,0,0,.49.44c7,.22,14,2.54,20.82,4.78,7.11,2.36,14.43,4.78,21.85,4.78.94,0,1.87,0,2.81-.12,13.37-1.16,20.66-7.88,22.52-9.83q2.63,2.76,5.21,5.55a63.39,63.39,0,0,1,7.56,9.48c-4.44-.68-19.5-2.56-34.28.29-17.38,3.36-29,4.56-29.08,4.57a.5.5,0,0,0-.44.36.52.52,0,0,0,.16.55c.11.09,9.56,7.72,22.35,7.72a33.15,33.15,0,0,0,3.55-.19c13.2-1.5,34.82-10.3,38.57-11.87a21.61,21.61,0,0,1,2.62,7.86.52.52,0,0,0,.51.46h.06a.52.52,0,0,0,.45-.57,22.56,22.56,0,0,0-2.79-8.33A.39.39,0,0,0,133.88,245.38Z"/><path class="cls-2" d="M388.06,77.85c3.73-.34,43.53-4.68,74.52-35.15a.53.53,0,0,0,.09-.62.52.52,0,0,0-.57-.25c-.42.09-41.49,9.69-72.53,33.45a154.28,154.28,0,0,1,14.75-21.16c2.34-1.58,38.61-26.44,48.82-53.42A.52.52,0,0,0,453,.1a.51.51,0,0,0-.62,0c-1.72,1.35-42.2,33.33-48.91,53.45a153,153,0,0,0-13.82,19.65c1.83-6.22,4.78-18.31,4.49-30.76-.4-17.7.36-29.32.37-29.44a.52.52,0,0,0-.28-.49.5.5,0,0,0-.57.07c-.11.09-10.94,9.64-11.76,24.27-.61,10.9,2.71,28.26,4.42,36.29.46,2.17.8,3.65.91,4.14-2.91,5-5.68,10.1-8.43,15.15-.61,1.13-1.23,2.25-1.85,3.38C375.68,93,372.16,83.4,374,68.48c2.29-18.18-8.82-38.55-8.93-38.75a.52.52,0,0,0-1,.32c1,7-.13,14.27-1.19,21.32-1.19,7.84-2.41,15.93-.78,23.63.11.49.22,1,.35,1.46C366,89.89,374.29,95.89,376.2,97.12l-1.67,3.07c-2.79,5-5.69,10-8.65,15-.32-5-1.71-19.59-7.38-33C351.6,65.93,348,54.84,348,54.73a.5.5,0,0,0-.44-.35.53.53,0,0,0-.51.27c-.06.12-5.57,10.95-2.91,23.47a32.43,32.43,0,0,0,.93,3.43c4.29,12.85,17.85,32.71,19.75,35.45q-8,13.34-16.78,26.19c-1.35-2.77-5.23-12.21-3.94-27.18,1.56-18.25-10.33-38.17-10.45-38.37a.53.53,0,0,0-.63-.22.51.51,0,0,0-.32.58c1.24,6.94.42,14.27-.36,21.35-.83,7.45-1.68,15.12-.14,22.38.19.91.42,1.81.7,2.71,3.92,12.84,12,18.58,14.3,20q-2.16,3.15-4.36,6.25a63.15,63.15,0,0,1-7.69,9.36c-.26-4.48-1.55-19.61-7.41-33.47-6.9-16.3-10.47-27.38-10.51-27.49a.51.51,0,0,0-1-.08c-.06.11-5.57,10.94-2.91,23.46a32.43,32.43,0,0,0,.93,3.43c4.2,12.6,17.31,31.92,19.61,35.27a21.52,21.52,0,0,1-7.14,4.18.53.53,0,0,0-.34.6l0,.06a.51.51,0,0,0,.65.32,22.59,22.59,0,0,0,7.58-4.46.33.33,0,0,0,.17,0s0,0,.05,0,.05,0,.08,0c.42.08,41.84,6.86,80.58-17.7a.51.51,0,0,0-.27-.95c-.43,0-42.93-.17-78.64,16.8a68,68,0,0,0,7-8.74c1.51-2.13,3-4.29,4.49-6.45l.08,0c9-4.05,30.59-5.72,46.33-6.94,3.83-.3,7.45-.58,10.49-.86,15.6-1.45,23.73-7,24.07-7.27a.51.51,0,0,0-.06-.88c-.45-.23-11.18-5.5-34.57-2.65-19.63,2.4-39.14,13.17-45,16.62,5.62-8.27,11-16.73,16.19-25.31h0c.42.07,41.85,6.86,80.59-17.7a.51.51,0,0,0-.28-.95c-.43,0-43.61-.17-79.49,17.21q4.57-7.64,8.87-15.39c.62-1.12,1.23-2.24,1.84-3.36,9.29-3.62,30.7-4.44,46.37-5,3.84-.15,7.46-.28,10.5-.45,15.65-.84,24-6.09,24.34-6.31a.52.52,0,0,0,0-.89c-.43-.24-10.95-5.93-34.43-4-19.94,1.65-40.07,11.84-45.8,15,.48-.89,1-1.77,1.45-2.65C382.4,87.91,385.16,82.84,388.06,77.85Z"/><path class="cls-1" d="M614.12,274.39a.51.51,0,0,0-.55-.18c-.11,0-11.31,3.19-28.71,6.47-12.24,2.31-23.45,7.71-29.16,10.79a153.45,153.45,0,0,0,16.35-17.61c18.29-10.73,41.16-57,42.13-58.93a.54.54,0,0,0-.12-.62.54.54,0,0,0-.63-.05c-24.24,15.58-41,56.17-42.11,58.85a155.06,155.06,0,0,1-17.64,18.83c16.8-35.3,17.66-77.47,17.66-77.9a.49.49,0,0,0-.37-.5.51.51,0,0,0-.58.21C547,250.4,551,290.24,551.48,294c-4.28,3.87-8.67,7.62-13,11.34l-2.28,2c1.84-6.25,7.63-28.07,5.1-47.91-3-23.37-10.73-32.47-11.06-32.85a.51.51,0,0,0-.48-.17.51.51,0,0,0-.39.33c-.15.38-3.56,9.63-1.13,25.11.48,3,1.09,6.59,1.75,10.38,2.67,15.45,6.31,36.56,4.7,46.4l-2.9,2.49q-6.71,5.81-13.22,11.88c9.56-38.71.42-80.91.33-81.34a.51.51,0,0,0-.47-.4.52.52,0,0,0-.52.33c-16,43-.74,82.11-.58,82.5,0,0,0,0,0,0q-11,10.26-21.4,21.1c2.17-6.44,8.65-27.76,6.91-47.46-2.06-23.47-9.45-32.87-9.76-33.26a.52.52,0,0,0-.48-.19.49.49,0,0,0-.4.31c-.16.38-3.93,9.49-2.11,25,.36,3,.83,6.63,1.34,10.44,2.07,15.65,4.91,37.1,2.83,46.77v.07c-1.81,1.9-3.61,3.82-5.38,5.74a69.55,69.55,0,0,0-7.09,8.69c9.19-38.44.2-80,.1-80.41a.5.5,0,0,0-.46-.4.51.51,0,0,0-.52.33c-16,43-.74,82.12-.58,82.51l.05.06s0,0,0,.06a.58.58,0,0,0,0,.18A22.5,22.5,0,0,0,477.6,372a.52.52,0,0,0,.45.57h.06a.52.52,0,0,0,.52-.45,21.59,21.59,0,0,1,2.61-7.86c3.75,1.57,25.37,10.37,38.57,11.87a33.15,33.15,0,0,0,3.55.19c12.79,0,22.24-7.63,22.35-7.72a.52.52,0,0,0,.16-.55.5.5,0,0,0-.44-.36c-.11,0-11.7-1.21-29.08-4.57-14.78-2.85-29.84-1-34.28-.29a64,64,0,0,1,7.56-9.48q2.58-2.79,5.21-5.55c1.86,1.95,9.15,8.67,22.53,9.83.93.09,1.86.12,2.8.12,7.42,0,14.74-2.42,21.85-4.78,6.77-2.24,13.77-4.56,20.82-4.78a.52.52,0,0,0,.15-1c-.22-.08-22.18-7.58-39.7-2.25-14.32,4.35-24.39,2.53-27.41,1.79Q506.6,335.46,518,324.82c3.08,1.29,25.32,10.43,38.78,11.95a31,31,0,0,0,3.56.2c12.79,0,22.24-7.63,22.34-7.72a.52.52,0,0,0,.17-.55.52.52,0,0,0-.44-.36c-.12,0-11.7-1.21-29.08-4.57-14.29-2.76-28.84-1.09-33.8-.37q6.38-5.89,12.9-11.58l2.65-2.27c1.61,1.61,9.19,8.44,23,9.1.51,0,1,0,1.51,0,7.87,0,15.53-2.88,23-5.66,6.67-2.51,13.58-5.1,20.61-5.6a.52.52,0,0,0,.48-.46.51.51,0,0,0-.36-.55c-.23-.07-22.47-6.71-39.77-.7-14.18,4.93-24.33,3.48-27.34,2.86l2.91-2.5c4.38-3.74,8.78-7.51,13.08-11.4.51,0,2,0,4.25,0,8.2,0,25.87-.36,36.4-3.22C607,287.66,614.1,275.08,614.17,275A.51.51,0,0,0,614.12,274.39Z"/><path class="cls-1" d="M93.94,288a214.34,214.34,0,0,0-33.85-16L35.47,284.71,38,265.44a161.91,161.91,0,0,0-29.29-4.1,131.28,131.28,0,0,0-1.53,39c4.62-1.9,11.68-4.36,17.85-3.83,0,0-9.68,11.05-14.51,22.16a100.8,100.8,0,0,0,18,36.8c1.69-6.44,5.2-17.24,10.89-22.93,0,0-2.06,19.51-.52,34.18a109.53,109.53,0,0,0,29.17,19.14c.4-7.3,1.44-20,4-23.19,0,0,2,16,7.36,27.79a183.09,183.09,0,0,0,38.53,8.8V304.41s-4.08-3.47-11.4-8.43A75.39,75.39,0,0,0,76,310C79.72,300.36,89.15,291.89,93.94,288Z"/><path class="cls-3" d="M114.72,369.3a276.06,276.06,0,0,1-45-33.66C46.27,314,26.78,288.54,8.5,262.46a134.32,134.32,0,0,0-1.3,37.9c4.62-1.9,11.68-4.36,17.85-3.83,0,0-9.68,11.05-14.51,22.16a100.8,100.8,0,0,0,18,36.8c1.69-6.44,5.2-17.24,10.89-22.93,0,0-2.06,19.51-.52,34.18a109.53,109.53,0,0,0,29.17,19.14c.4-7.3,1.44-20,4-23.19,0,0,2,16,7.36,27.79a183.09,183.09,0,0,0,38.53,8.8V371.22Z"/><path class="cls-2" d="M274.36,151.67a213.17,213.17,0,0,0-10.46-44.78c-13.77-6.15-32.38-8.42-32.38-8.42,3.67-3,18.47-4.28,27-4.78a127.85,127.85,0,0,0-22.44-33.85c-17.08-1.71-39.77.8-39.77.8,6.59-6.65,19.14-10.8,26.62-12.8A117.32,117.32,0,0,0,180,27.12c-12.9,5.68-25.71,17-25.71,17-.65-7.19,2.17-15.41,4.37-20.8l-2.23-.2-.73-.06L154.2,23l-.8-.06-1.4-.08-.8,0-1.4-.07-.72,0-1.59-.05-.49,0-2.06,0h-.28l-1.71,0h-2.61l-1.31,0-.6,0-1.36,0h-.48l-1.74.08h0l-1.79.09-.29,0-1.39.09-.44,0-1.19.09-.46,0-1.14.1-.4,0-1.22.12-.25,0-2.79.31-.25,0-1,.13-.33,0L121,24l-.36.05-.77.11-.32.05-.82.12-.19,0-.91.15-.25,0-.58.1-.32.05-.43.08-.34.06-.3.06-.34.06-.19,0-1.66.34a188.68,188.68,0,0,0,4.94,34.07l22.4-3.08L126,85a249.48,249.48,0,0,0,18.78,39.3c4.46-5.6,14.26-16.61,25.51-21,0,0-11.54,13.64-16.21,35.63,5.82,8.49,9.88,13.21,9.88,13.21l77.75-.36h0Z"/><path class="cls-1" d="M546.29,81.78a60.68,60.68,0,0,1,.29,16.84A36.06,36.06,0,0,0,530,90.89,134.29,134.29,0,0,0,504.62,112a31.42,31.42,0,0,1,11.8,5.2,188.66,188.66,0,0,0-19.86,4.3c-21.78,28.37-24.39,56.31-24.39,56.31l20.38,53.23A271.55,271.55,0,0,0,517,214.34c.44-8.22-1.09-19.27-1.09-19.27,3.2,3.55,6.45,9.82,8.23,13.54a181.77,181.77,0,0,0,29.19-30.26A54.24,54.24,0,0,0,547,158.21c7.78,2.44,11.63,6.28,13.54,9.55a119,119,0,0,0,17-44.93c-4.11-11.63-10.4-16.28-10.4-16.28a37.17,37.17,0,0,1,11.56-5c-.83-18.24-6.09-29.81-6.09-29.81A172,172,0,0,0,546.29,81.78Z"/><path class="cls-3" d="M567.21,106.55a37.17,37.17,0,0,1,11.56-5c-.83-18.24-6.09-29.81-6.09-29.81l-1.09.33c-7.72,28.86-23.81,55.8-42.25,78.84-14.59,18.24-31.34,34.52-48,50.84l11.23,29.33A271.55,271.55,0,0,0,517,214.34c.44-8.22-1.09-19.27-1.09-19.27,3.2,3.55,6.45,9.82,8.23,13.54a181.77,181.77,0,0,0,29.19-30.26A54.24,54.24,0,0,0,547,158.21c7.78,2.44,11.63,6.28,13.54,9.55a119,119,0,0,0,17-44.93C573.5,111.2,567.21,106.55,567.21,106.55Z"/><path class="cls-4" d="M115.78,130.91H494.85a10.38,10.38,0,0,1,10.38,10.38V400.57a0,0,0,0,1,0,0H105.4a0,0,0,0,1,0,0V141.29A10.38,10.38,0,0,1,115.78,130.91Z"/><path class="cls-5" d="M174.79,130.91h-59a10.38,10.38,0,0,0-10.38,10.38V400.57h339Z"/><path class="cls-6" d="M134.66,148.48H476a9.35,9.35,0,0,1,9.35,9.35V385.07a0,0,0,0,1,0,0h-360a0,0,0,0,1,0,0V157.82A9.35,9.35,0,0,1,134.66,148.48Z"/><path class="cls-2" d="M220.88,148.48H134.66a9.34,9.34,0,0,0-9.34,9.34V385.07H457.47Z"/><path class="cls-7" d="M493.35,435.69H117.28a34.61,34.61,0,0,1-34.61-34.61h0a2.59,2.59,0,0,1,2.59-2.58H525.38a2.58,2.58,0,0,1,2.58,2.58h0A34.6,34.6,0,0,1,493.35,435.69Z"/><path class="cls-8" d="M525.38,398.5h-202l37.2,37.19H493.35A34.6,34.6,0,0,0,528,401.08,2.58,2.58,0,0,0,525.38,398.5Z"/><path class="cls-9" d="M203.08,244.85l-8-8.29v-9.71a5,5,0,0,0-5-5H142a5,5,0,0,0-5,5v16.21a5,5,0,0,0,5,5h59.7A1.88,1.88,0,0,0,203.08,244.85Z"/><path class="cls-6" d="M155.52,235a4.67,4.67,0,1,1-4.67-4.67A4.67,4.67,0,0,1,155.52,235Z"/><path class="cls-6" d="M170.74,234.87a4.67,4.67,0,1,1-4.67-4.67A4.67,4.67,0,0,1,170.74,234.87Z"/><path class="cls-6" d="M186,234.87a4.67,4.67,0,1,1-4.67-4.67A4.67,4.67,0,0,1,186,234.87Z"/><path class="cls-9" d="M445.69,95.06a1.59,1.59,0,0,1-.91-.29l-40-28.61a4.61,4.61,0,0,0-.1.91v41.77a4.14,4.14,0,0,0,4.13,4.14h73.67a4.15,4.15,0,0,0,4.14-4.14V67.07a4.18,4.18,0,0,0-.39-1.73L446.61,94.76A1.56,1.56,0,0,1,445.69,95.06Z"/><path class="cls-9" d="M484,63.2a4,4,0,0,0-1.43-.27H408.85a4.07,4.07,0,0,0-2.26.68l39.08,28Z"/><circle class="cls-1" cx="483.89" cy="63.8" r="16.28" transform="translate(309.87 519.8) rotate(-76.62)"/><path class="cls-4" d="M487,73.47a3.09,3.09,0,1,1-3.09-3.09A3.09,3.09,0,0,1,487,73.47Z"/><path class="cls-4" d="M482.46,67.54l-1.4-13.36a2.85,2.85,0,0,1,5.66-.59,2.91,2.91,0,0,1,0,.59l-1.4,13.36a1.44,1.44,0,0,1-2.86,0Z"/><path class="cls-9" d="M234.82,155.23l-17.45-18.09V85.41a8.22,8.22,0,0,0-8.21-8.22H145.27a8.22,8.22,0,0,0-8.22,8.22v67.18a8.22,8.22,0,0,0,8.22,8.22h55.42l-.08.12H232.4A3.37,3.37,0,0,0,234.82,155.23Z"/><path class="cls-6" d="M173.13,114.18l-2.66-5,6.36-3.36a3.21,3.21,0,0,0,1.33-4.34L172.57,90.9a3.21,3.21,0,0,0-4.34-1.33l-3.46,1.83a16.24,16.24,0,0,0-6.75,22l3.65,6.89,3.71,7,6.17,11.46a16.25,16.25,0,0,0,22,6.76l3.46-1.84a3.22,3.22,0,0,0,1.34-4.34l-5.59-10.55a3.21,3.21,0,0,0-4.34-1.34L182,130.78l-5.18-9.59Z"/><path class="cls-10" d="M470.37,283.7a230.12,230.12,0,0,1,25.07-32.49,7.51,7.51,0,0,0,1.72-2.41,2.52,2.52,0,0,0-.5-2.76c-1.19-1-3-.23-4.35.66a75.43,75.43,0,0,0-8.59,6.51l9.65-14.68a7.66,7.66,0,0,0,1.19-2.35,2.64,2.64,0,0,0-.54-2.47,2.57,2.57,0,0,0-2.45-.53,6.69,6.69,0,0,0-2.29,1.26c-4.41,3.35-7.91,7.74-11.36,12.08A152.31,152.31,0,0,0,488,227c.59-1.39,1.13-3.11.21-4.3a2.87,2.87,0,0,0-3-.8,6.79,6.79,0,0,0-2.76,1.83c-5.13,5-7.81,11.9-10.33,18.58,1.49-5.79,2.86-11.27,3.23-17.25.09-1.43,0-3.19-1.32-3.81a2.54,2.54,0,0,0-2.78.67,7.52,7.52,0,0,0-1.47,2.64q-3.33,8.64-6.27,17.44c-.36,1.07-3.49,12.67-6.4,8.69a4.8,4.8,0,0,1-.71-2c-.44-2.3-.89-4.6-1.33-6.89a7.7,7.7,0,0,0-1.22-3.35c-1.55-2-3.9-1.18-4.32,1.13-1.92,10.52,3.7,21.07,3.19,31.75A35.58,35.58,0,0,1,470.37,283.7Z"/><path class="cls-11" d="M185.25,385.07s19.84-82.74,28.81-104.5,15-33,45.91-42.13,88.5-6.84,106.74,8.84,45.77,83.21,45.77,83.21l39.68-61.12s14.41,5.76,20.17,13.76c0,0-40,97.29-59.85,98.57s-48-61.13-48-61.13L375,385.07Z"/><path class="cls-12" d="M220.89,276.88A137.45,137.45,0,0,1,228,255.57c-6,6.53-9.67,14.55-14,25-9,21.76-28.81,104.5-28.81,104.5h8C193.31,384.92,218.52,286.1,220.89,276.88Z"/><path class="cls-12" d="M470.92,285.08c-6.82,8.57-13.64,17.37-20,26.26-7.05,9.84-12.41,20.8-20.73,29.73-9.24,9.92-23.1,14.57-34.19,4.46-6.37-5.81-9.93-14.45-14.1-21.82-4.8-8.46-9.65-16.91-14-25.6-2.39-4.74-4.63-9.56-6.66-14.46,0,2.26,0,4.51.07,6.75.47,11.52,2.73,23.12,5.2,34.42,6.77,14,29.33,58,46,56.88,19-1.23,56.43-90.36,59.62-98C471.71,284.14,471.3,284.6,470.92,285.08Z"/><path class="cls-13" d="M347.38,235.36q-8.08-3.8-16.5-6.83c-4.35-1.57-8.45-3.92-13-4.42a87.1,87.1,0,0,0-33.37,3.09c-11.86,3.44-22.94,8.07-34.41,12.94-3.12,1.33-6.48,2.88-8,5.89-2.17,4.21.11,9.34,3,13.09S251.35,266,254,269.9s4.33,8.71,3.09,13.21c-1.52,5.53-7.09,9.29-8.39,14.88-.94,4.05.57,8.22,2.05,12.11q4.5,11.83,9,23.68C265,347.66,270.92,362.36,283,371c5.24,3.74,12,6.14,18.13,4.16,5.28-1.71,9.07-6.29,12.3-10.81,9.11-12.76,16.28-26.77,22.7-41,2.74-6.09,5.67-12,8.57-17.83,2.53-5.14,1.71-12.06-2.58-16-2-1.89-4.75-3.25-5.86-5.8-1.52-3.45.59-7.33,2.52-10.57a168.17,168.17,0,0,0,13-27c.78-2.08,1.52-4.42.68-6.48S349.42,236.32,347.38,235.36Z"/><path class="cls-6" d="M280.11,225.51s-17,79.42-9.88,159.56h58.21c.31,0-6.94-128.15-2.22-154.75Z"/><path class="cls-14" d="M282.88,385.07h.61c-.06-1.06-.1-2.13-.15-3.19C283.19,382.94,283,384,282.88,385.07Z"/><path class="cls-14" d="M326.22,230.32l-7.75-.81c-4.09,25.92-3.74,52.51-2.8,78.66.64,17.47,1.59,34.92,2,52.4.19,8.11.24,16.15,1.66,24.16a3.4,3.4,0,0,1,.07.34h9C328.75,385.07,321.5,256.92,326.22,230.32Z"/><path class="cls-15" d="M323.89,188.24c.25-.18.5-.36.76-.53,1,2.89.71,6,.5,9.06-.37,5.43-.8,10.8-1,16.23-.17,5,.81,9.49,1.82,14.44a8.26,8.26,0,0,1,.24,2.88,6.4,6.4,0,0,1-1.49,2.93c-5.09,6.33-14.18,7.63-22.31,7.37-6.76-.21-14.13-1.22-19.86-5.11-3.43-2.33-2.28-3.4-2.2-7a42.19,42.19,0,0,1,.56-7.65c.39-2,3.48-18.52.85-18.48a73.86,73.86,0,0,0,22.05-3.83c3.46-1.14,7-2.51,10.31-3.91S320.78,190.46,323.89,188.24Z"/><path class="cls-16" d="M326,227.44c-1-4.95-2-9.43-1.82-14.44.19-5.43.62-10.8,1-16.23.21-3,.46-6.17-.5-9.06-.26.17-.51.35-.76.53-3.11,2.22-6.31,4.91-9.76,6.36s-6.85,2.77-10.31,3.91a73.86,73.86,0,0,1-22.05,3.83c1.69,0,1,6.77.22,12.16,8.85,4.19,20.33.15,27.94,7.61,4.36,4.28,6.35,10.29,7.61,16.33a17.59,17.59,0,0,0,7.19-5.19,6.4,6.4,0,0,0,1.49-2.93A8.26,8.26,0,0,0,326,227.44Z"/><path class="cls-17" d="M342,112.38c2.78,4.28,4.46,9.84,5.89,14.72A51.36,51.36,0,0,1,350,141.25c0,5,.37,9.92-.45,14.94a49.47,49.47,0,0,1-8.32,20.52c-4.39,6.23-10.3,10.7-15.26,16.4-1.35,1.55-3.46,3.92-5.81,2.55-1.74-1-1.55-3.55-1.21-5.54a80.57,80.57,0,0,0-.71-30.56c-2.1-9.64-5.16-18.82-6.3-28.73-.72-6.14-5.25-3.53-9.24-2.18-5.17,1.74-10.83,2.94-16.16,1.13-1.77-.6-3.43-1.51-5.25-1.94a20.44,20.44,0,0,0-5.85-.24c-10.82.57-20.25,3-30.71-1.62-6.49-2.87-10.61-9.26-9.08-16.58,1.55-7.47,9.2-12.85,16.75-12,2.25.26,4.47,1,6.71.77,2.91-.31,3.73-2.49,5.43-4.39a28.1,28.1,0,0,1,6.81-5.2,39.39,39.39,0,0,1,16.48-5.06c13.19-1.11,29.68,2.61,37.39,14.27,1,1.58,2,3.31,3.46,4.45a21.34,21.34,0,0,0,4.46,2.15A21.27,21.27,0,0,1,342,112.38Z"/><path class="cls-18" d="M339.53,178.89c3.33-7.69,5.52-15.65,1.58-23.34-2.58-5-6.36-7.59-6.56-13.55-.23-6.76.63-13.57-.92-20.24s-6.48-15.39-11.83-19.9-12.88-7.28-19.43-9c-7.23-1.85-14.66-1.82-22.05-1.32-5.28.35-10.47,1.41-15.7,2.07a1.59,1.59,0,0,0-.13.13c-1.7,1.9-2.52,4.08-5.43,4.39-2.24.23-4.46-.51-6.71-.77a14.56,14.56,0,0,0-2.38-.05c-1.43,3.3-1.18,7.32,2.53,8.59,2.22.76,5,.55,7.34.52,7.87-.1,16.25-5.07,24.17-5,11.53,0,24.59.57,33.84,8.45,9.77,8.33,9.13,29.43,8.53,41a50.2,50.2,0,0,1-6.45,22.28,80.28,80.28,0,0,1-1,17c-.34,2-.53,4.52,1.21,5.54,2.35,1.37,4.46-1,5.81-2.55C330.28,188.09,335.38,184,339.53,178.89Z"/><path class="cls-10" d="M282.62,119c-8.14,1.21-14.28,7-22.26,8.66a.53.53,0,0,0-.35.17.52.52,0,0,0,0,.37,63,63,0,0,1,2.2,10.07,83.65,83.65,0,0,1-.46,20.37c-1.06,6.64-2.69,13.32-2.07,20.09a31,31,0,0,0,11.25,21c8.82,7.12,21.14,8.15,31.91,5.76,18-4,28.74-22.39,27.66-40.12a1.71,1.71,0,0,1,.3-1.34,1.55,1.55,0,0,1,.64-.32c4-1.33,7.5-3.13,8.81-7.52a7,7,0,0,0-.34-5.39c-2.86-5.1-9.91-1.36-12,2.36-.71,1.28-.61,2.23-2.16,2.69-2.71.79-3.88.58-4.91-2.18-1.24-3.31-.08-6.2-.08-9.54,0-3.53.44-6.34-1.44-9.33-1-1.52-2.26-2.82-3-4.45a12.2,12.2,0,0,1-.85-5.36,31.55,31.55,0,0,1,1.67-9.48,25.22,25.22,0,0,1-7.62,4.78c-4.29,1.48-9,.84-13.44,0S287.11,118.38,282.62,119Z"/><path class="cls-15" d="M339.91,150.87c-2.86-5.1-9.91-1.36-12,2.36-.71,1.28-.61,2.23-2.16,2.69-2.71.79-3.88.58-4.91-2.18-1.24-3.31-.08-6.2-.08-9.54,0-3.53.44-6.34-1.44-9.33-1-1.52-2.26-2.82-3-4.45a12.2,12.2,0,0,1-.85-5.36,31.55,31.55,0,0,1,1.67-9.48,25.22,25.22,0,0,1-7.62,4.78c-4.29,1.48-9,.84-13.44,0s-9-2-13.47-1.29c-8.14,1.21-14.28,7-22.26,8.66a.53.53,0,0,0-.35.17.52.52,0,0,0,0,.37c.14.55.29,1.09.43,1.64A59.17,59.17,0,0,0,271,128.06c3.44-1,6.69-2.43,10.09-3.52a26.43,26.43,0,0,1,8.8-1.51c3.14.09,6.13,1.11,9.14,1.86,3.35.83,7.95,0,9.43,3.9,1.4,3.61.77,7.81,1,11.59.4,6.14,2.45,12.13,3.49,18.17a58.38,58.38,0,0,1,.57,17c-1.22,9.87-5.07,20.12-12.92,26.6a31.75,31.75,0,0,1-6.89,4.3,45.55,45.55,0,0,0,9.1-.94c18-4,28.74-22.39,27.66-40.12a1.71,1.71,0,0,1,.3-1.34,1.49,1.49,0,0,1,.64-.32c4-1.33,7.5-3.13,8.81-7.52A7,7,0,0,0,339.91,150.87Z"/><path class="cls-17" d="M275.62,131.61c-1-1.69-4.13-1.62-5.67-1-3.6,1.52-8.82,5.79-10,9.67a1.82,1.82,0,0,0,.38,1.86,1.87,1.87,0,0,0,1.92.26,6,6,0,0,0,1.71-1.11,33.6,33.6,0,0,1,7.85-4.69,9.82,9.82,0,0,0,3.13-1.75A2.79,2.79,0,0,0,275.62,131.61Z"/><path class="cls-17" d="M298.05,130.92c1-1.69,4.13-1.62,5.68-1,3.59,1.52,8.81,5.79,10,9.67a1.85,1.85,0,0,1-.39,1.86,1.86,1.86,0,0,1-1.92.26,6.13,6.13,0,0,1-1.71-1.11,33.19,33.19,0,0,0-7.85-4.69,9.67,9.67,0,0,1-3.12-1.75A2.78,2.78,0,0,1,298.05,130.92Z"/><path class="cls-19" d="M276.54,148.26a3.12,3.12,0,1,1-3.12-3.12A3.12,3.12,0,0,1,276.54,148.26Z"/><path class="cls-19" d="M301.06,148.26a3.12,3.12,0,1,1-3.12-3.12A3.12,3.12,0,0,1,301.06,148.26Z"/><path class="cls-16" d="M285.81,142.59c.24,3.58.6,7.17.74,10.79a37.88,37.88,0,0,1,0,5.53,14,14,0,0,1-1.74,5.45,10.56,10.56,0,0,1-1.79,2.33,18.26,18.26,0,0,1-2.23,1.75,4.13,4.13,0,0,0-1.5,1.56,2.27,2.27,0,0,0,.1,1.83,3.37,3.37,0,0,0,1.44,1.48,4,4,0,0,0,2.11.45,9,9,0,0,0,4.5-1.93h0a.51.51,0,0,1,.72.11.53.53,0,0,1,0,.67,8.75,8.75,0,0,1-5,2.82,5.19,5.19,0,0,1-5.43-2.77,4.07,4.07,0,0,1-.13-3.4,5.9,5.9,0,0,1,2.15-2.33,16.2,16.2,0,0,0,2-1.55,9.14,9.14,0,0,0,1.51-1.92,13.47,13.47,0,0,0,1.6-4.76,39.44,39.44,0,0,0,.18-5.26c-.05-3.58-.2-7.19-.22-10.8a.52.52,0,0,1,1,0Z"/><path class="cls-6" d="M284.34,181.91a62.74,62.74,0,0,0-6.07,1.83c-1.44.54-1.74.17-1.79,1.68a6.36,6.36,0,0,0,1.17,2.68,9.59,9.59,0,0,0,4.16,3.74,10,10,0,0,0,9.68-.83,9.51,9.51,0,0,0,3.81-5.71c.37-1.64.89-6.31-1.78-5.6C290.53,180.49,287.41,181.14,284.34,181.91Z"/><circle class="cls-20" cx="334.29" cy="154.82" r="12.21" transform="translate(-11.56 281.72) rotate(-45)"/><circle class="cls-11" cx="334.29" cy="154.82" r="6.34"/><path class="cls-20" d="M333.6,148.08a2.58,2.58,0,0,1-2.44-2.57c0-7.07-.09-14.38-1.36-21.35-1.39-7.65-4.11-13.92-8.08-18.62a34.75,34.75,0,0,0-13.14-9.6,48,48,0,0,0-18.39-3.42A88.62,88.62,0,0,0,262,97.43c-1,.33-2,.72-2.95,1a.94.94,0,0,1-.66,0,.67.67,0,0,1-.35-.66c.07-1.18,1.3-2.45,2.06-3.26,3-3.2,7.52-4.16,11.62-5.15a79.67,79.67,0,0,1,17.06-2.06,55.75,55.75,0,0,1,19.6,2.94,40.3,40.3,0,0,1,17.3,11.89c4.56,5.41,7.66,12.48,9.22,21,1.35,7.42,1.39,15,1.43,22.25a2.58,2.58,0,0,1-2.57,2.6Z"/><path class="cls-20" d="M303.29,195.7a1.55,1.55,0,0,1-.48-3c6.92-2.26,15.54-5.07,20.7-11.26,4.43-5.31,6-12.6,7.38-19a1.55,1.55,0,0,1,3,.65c-1.46,6.79-3.12,14.48-8,20.37-5.73,6.88-14.82,9.84-22.12,12.23A1.59,1.59,0,0,1,303.29,195.7Z"/><path class="cls-11" d="M301.89,199.28l-2.65.73a4.62,4.62,0,0,1-5.69-3.22h0a4.62,4.62,0,0,1,3.22-5.69l2.65-.73a4.62,4.62,0,0,1,5.69,3.22h0A4.62,4.62,0,0,1,301.89,199.28Z"/><polygon class="cls-12" points="226.2 385.07 235.77 323.82 233.83 385.07 226.2 385.07"/></g></g></svg>